# xmcd
#
# Track frame offsets: 
#        150
#        13055
#        29930
#        43462
#        64760
#        80155
#        100282
#        113015
#        131930
#        147035
#        162620
#        181680
#        199367
#
# Disc length: 2856 seconds
#
# Revision: 0
# Processed by: cddbd v1.5.2PL0 Copyright (c) Steve Scherf et al.
# Submitted via: ExactAudioCopy v0.95b4
#
DISCID=c80b260d
DTITLE=Beth Stevens and Edge - Strong Enough
DYEAR=2008
DGENRE=Bluegrass
TTITLE0=If I Knew Then What I Know Now
TTITLE1=New Home
TTITLE2=Back To Back Heartaches
TTITLE3=Demons and Angels
TTITLE4=Heading Out of Heartaches
TTITLE5=Strong Enough
TTITLE6=Close By
TTITLE7=Time
TTITLE8=Sweet Peace
TTITLE9=I Can Hear Your Voice
TTITLE10=Echoes Of Love
TTITLE11=Hands of Time
TTITLE12=The Filly and the Farm
EXTD=
EXTT0=
EXTT1=
EXTT2=
EXTT3=
EXTT4=
EXTT5=
EXTT6=
EXTT7=
EXTT8=
EXTT9=
EXTT10=
EXTT11=
EXTT12=
PLAYORDER=
